<svg width="168" height="36" viewBox="0 0 168 36" fill="none" xmlns="http://www.w3.org/2000/svg">
<g clip-path="url(#clip0_500_558)" filter="url(#filter0_d_500_558)">
<path d="M99.3846 1.07715H82.9743C80.7085 1.07715 78.8718 3.00577 78.8718 5.38484V22.6156C78.8718 24.9947 80.7085 26.9233 82.9743 26.9233H99.3846C101.65 26.9233 103.487 24.9947 103.487 22.6156V5.38484C103.487 3.00577 101.65 1.07715 99.3846 1.07715Z" stroke="white" stroke-width="2.2"/>
<path fill-rule="evenodd" clip-rule="evenodd" d="M89.256 8.61572H87.0768V19.5193H89.256V8.61572Z" fill="white"/>
<path fill-rule="evenodd" clip-rule="evenodd" d="M88.9218 8.61572H91.3821C92.7019 8.65844 93.9543 9.25131 94.8738 10.2687C95.7933 11.286 96.3077 12.6478 96.3077 14.0654C96.3077 15.483 95.7933 16.8447 94.8738 17.862C93.9543 18.8794 92.7019 19.4723 91.3821 19.5151H88.9218V17.4362H91.2929C92.1086 17.4088 92.8822 17.0417 93.4502 16.4126C94.0182 15.7834 94.3359 14.9418 94.3359 14.0656C94.3359 13.1895 94.0182 12.3478 93.4502 11.7187C92.8822 11.0895 92.1086 10.7225 91.2929 10.695H88.9239V8.61572H88.9218Z" fill="white"/>
<path d="M129.128 1.07715H112.718C110.453 1.07715 108.616 3.00577 108.616 5.38484V22.6156C108.616 24.9947 110.453 26.9233 112.718 26.9233H129.128C131.394 26.9233 133.23 24.9947 133.23 22.6156V5.38484C133.23 3.00577 131.394 1.07715 129.128 1.07715Z" stroke="white" stroke-width="2.2"/>
<path fill-rule="evenodd" clip-rule="evenodd" d="M118.796 8.61572H116.644V19.3849H118.796V8.61572Z" fill="white"/>
<path fill-rule="evenodd" clip-rule="evenodd" d="M118.796 8.61603L117.036 9.94582L123.22 19.3805L124.979 18.0507L118.794 8.61603H118.796Z" fill="white"/>
<path fill-rule="evenodd" clip-rule="evenodd" d="M125.357 8.61572H123.204V19.3849H125.357V8.61572Z" fill="white"/>
<path d="M158.872 1.07715H142.462C140.195 1.07715 138.359 3.00577 138.359 5.38484V22.6156C138.359 24.9947 140.195 26.9233 142.462 26.9233H158.872C161.137 26.9233 162.974 24.9947 162.974 22.6156V5.38484C162.974 3.00577 161.137 1.07715 158.872 1.07715Z" stroke="white" stroke-width="2.2"/>
<path fill-rule="evenodd" clip-rule="evenodd" d="M147.64 15.4326L152.108 8.61572H154.719L147.683 19.38L147.639 19.3463V15.4336L147.64 15.4326Z" fill="white"/>
<path fill-rule="evenodd" clip-rule="evenodd" d="M150.769 13.3349L154.717 19.38H152.108L149.387 15.2288L150.769 13.3344V13.3349ZM147.777 8.75916L147.639 8.94881V8.64943L147.684 8.61572L147.777 8.75916Z" fill="white"/>
<path fill-rule="evenodd" clip-rule="evenodd" d="M148.717 8.61572H146.564V19.3849H148.717V8.61572Z" fill="white"/>
<path fill-rule="evenodd" clip-rule="evenodd" d="M35.6127 10.8847L36.6515 12.5358C37.0817 13.2144 37.5138 13.8908 37.9567 14.5622C38.5449 15.4524 39.1519 16.3342 39.7936 17.1753C40.3616 17.9227 40.9588 18.6481 41.5919 19.3319C42.6466 20.4943 43.85 21.4897 45.166 22.2881C45.9395 22.7435 46.7585 23.1043 47.607 23.3638C48.1836 23.5372 48.7717 23.6627 49.3665 23.739C49.9058 23.8069 50.4487 23.8379 50.9918 23.8318C51.9359 23.8224 52.8768 23.7078 53.7989 23.4899C54.6948 23.276 55.5691 22.9691 56.4097 22.5737C57.3578 22.1275 58.2637 21.5843 59.1148 20.9518C59.9793 20.3112 60.7929 19.5947 61.5471 18.8098C62.0938 18.2442 62.6098 17.6456 63.093 17.0169C63.2768 16.7778 63.4545 16.5346 63.6259 16.2873C63.7385 16.1236 63.8483 15.959 63.9522 15.79L63.9638 15.7714L67.2263 18.0332L67.1476 18.1613C66.778 18.7434 66.3805 19.3043 65.9564 19.8416C65.4182 20.5294 64.8469 21.1863 64.2446 21.8096C62.4209 23.7273 60.2932 25.2805 57.9614 26.396C57.5827 26.5732 57.1988 26.7369 56.8097 26.887C56.2366 27.1074 55.6533 27.2964 55.0621 27.453C54.2582 27.6667 53.4411 27.8186 52.6171 27.9075C52.1073 27.9628 51.5947 27.9929 51.083 28.0002C50.9859 28.0002 50.8888 28.0002 50.7918 28.0002C50.2742 28.0002 49.7568 27.9699 49.2383 27.9158C48.4715 27.8353 47.7115 27.694 46.9643 27.4926C46.0822 27.254 45.2219 26.9317 44.3931 26.5295C43.8379 26.2591 43.2971 25.9557 42.7736 25.6205C42.3729 25.3642 41.9823 25.0913 41.6016 24.8023C41.333 24.5938 41.0689 24.3811 40.8092 24.1643C39.0793 22.6519 37.527 20.9192 36.1864 19.0047C35.9923 18.7358 35.8001 18.4644 35.6097 18.1907V10.8827L35.6127 10.8847ZM35.6127 18.1927C35.2663 17.643 34.92 17.0931 34.5738 16.5426C34.1445 15.863 33.7125 15.1875 33.2698 14.5152C32.6804 13.625 32.0744 12.7432 31.4317 11.9021C30.8664 11.1518 30.2663 10.4327 29.6335 9.74746C28.5792 8.58417 27.3758 7.58842 26.0593 6.79032C24.7599 6.01924 23.3335 5.5265 21.8589 5.33939C21.3196 5.27063 20.7767 5.23925 20.2335 5.24556C19.2893 5.25488 18.3486 5.36981 17.4264 5.58848C16.5309 5.80216 15.6569 6.10866 14.8165 6.50365C13.869 6.95096 12.9632 7.49407 12.1114 8.12559C11.2466 8.76622 10.4328 9.48269 9.67823 10.2676C9.13163 10.8335 8.61548 11.4325 8.13241 12.0616C7.94923 12.2992 7.77151 12.5424 7.59933 12.7911C7.48769 12.9538 7.37698 13.1185 7.27309 13.2874L7.26243 13.306L4 11.0442C4.02525 11.0014 4.05148 10.9587 4.07769 10.917C4.44783 10.3348 4.84578 9.77366 5.27002 9.23571C5.8075 8.54775 6.37861 7.89083 6.98087 7.26773C8.80458 5.35006 10.9323 3.79692 13.264 2.68133C13.6427 2.50413 14.0265 2.34048 14.4155 2.19038C14.9889 1.96999 15.5722 1.7811 16.1632 1.6244C16.9676 1.41156 17.7849 1.25973 18.6091 1.16996C19.1189 1.11472 19.6306 1.08549 20.1433 1.07715C20.2403 1.07715 20.3374 1.07715 20.4345 1.07715C20.9521 1.07715 21.4706 1.10633 21.9882 1.16156C22.7544 1.24167 23.5142 1.3828 24.2612 1.58375C25.1436 1.82219 26.0044 2.14485 26.8332 2.54793C27.3886 2.81768 27.9292 3.12083 28.4529 3.45585C28.8529 3.71227 29.2431 3.98531 29.6238 4.27509C29.8938 4.48357 30.1578 4.69588 30.4161 4.912C32.1456 6.42523 33.6982 8.15775 35.0398 10.0717C35.234 10.3427 35.4283 10.6126 35.6156 10.8858V18.1938L35.6127 18.1927Z" fill="white"/>
<path fill-rule="evenodd" clip-rule="evenodd" d="M30.087 24.0661C29.9744 23.9078 29.8705 23.7409 29.7714 23.573C29.588 23.2604 29.42 22.9477 29.2607 22.6182C29.0491 22.1867 28.852 21.7458 28.6635 21.3007C28.5296 20.9846 28.4 20.6663 28.2751 20.3459L31.5367 17.8901L31.6493 18.1924C31.9095 18.8836 32.1842 19.5693 32.4901 20.2385C32.5814 20.4366 32.6746 20.6336 32.7736 20.8274C32.052 22.0599 31.144 23.1544 30.087 24.0661Z" fill="#00E2D0"/>
<path fill-rule="evenodd" clip-rule="evenodd" d="M27.4002 17.9463C27.3274 17.7326 27.2566 17.5189 27.1905 17.3032C27.0507 16.8459 26.9277 16.3835 26.8216 15.9158C26.6166 15.0091 26.4616 14.0902 26.3575 13.1639C26.2346 12.0849 26.1639 10.9998 26.1458 9.91289C26.1303 9.08318 26.1413 8.25346 26.1788 7.42375C26.1914 7.14544 26.2069 6.86603 26.2264 6.58981C26.2468 6.29378 26.2701 5.99984 26.3001 5.70485V5.68195L30.1578 6.16146C30.1501 6.24067 30.1423 6.31986 30.1355 6.39908C30.1267 6.50331 30.118 6.60023 30.1102 6.70134C30.0591 7.40389 30.0297 8.10717 30.0219 8.81112C30.0151 9.48656 30.0219 10.1661 30.0608 10.8353C30.0986 11.589 30.1578 12.3415 30.2627 13.0879C30.3404 13.6685 30.4394 14.246 30.5666 14.8162C30.6133 15.0246 30.6637 15.233 30.719 15.4415L27.3974 17.9432L27.4002 17.9463Z" fill="white"/>
<path fill-rule="evenodd" clip-rule="evenodd" d="M22.3087 27.3503C22.2544 27.2232 22.2009 27.096 22.1484 26.9689C21.975 26.5464 21.8064 26.1217 21.6425 25.6951C21.226 24.6059 20.8377 23.5061 20.4687 22.3949C20.1321 21.3839 19.81 20.3669 19.5026 19.3441C19.4165 19.0542 19.3304 18.7642 19.2443 18.4737C19.1676 18.2109 19.0908 17.9473 19.02 17.6824C18.8665 17.1112 18.7287 16.536 18.6122 15.9481C18.6006 15.8887 18.588 15.8303 18.5763 15.7708L22.566 15.7864C22.6513 16.1481 22.7437 16.5088 22.8457 16.8664C22.9077 17.08 22.9708 17.2936 23.033 17.5074C23.5369 19.2075 24.0739 20.897 24.6661 22.5639C24.8954 23.2081 25.1312 23.8491 25.3797 24.4838C25.5654 24.9582 25.7566 25.4293 25.9624 25.8942L26.0022 25.9817L26.213 26.4206C24.957 26.9181 23.6438 27.2307 22.3097 27.3503H22.3087Z" fill="#00E2D0"/>
<path fill-rule="evenodd" clip-rule="evenodd" d="M18.176 13.2713C18.1402 12.9836 18.106 12.6979 18.0789 12.4114C17.9421 11.1428 17.8595 9.86589 17.8186 8.589C17.785 7.51676 17.7809 6.44279 17.8061 5.36707C17.8158 4.95013 17.8304 4.53318 17.8497 4.11623C17.8671 3.74829 17.8876 3.38137 17.9158 3.01445V2.98633L21.7851 3.347C21.7782 3.4283 21.7735 3.50962 21.7676 3.59091C21.7599 3.71183 21.7521 3.83275 21.7452 3.9547C21.687 5.03458 21.6631 6.1165 21.6734 7.20055C21.6832 8.34715 21.7278 9.49379 21.8162 10.6403C21.8842 11.5253 21.9773 12.4123 22.1074 13.288L18.18 13.2734L18.176 13.2713Z" fill="white"/>
<path fill-rule="evenodd" clip-rule="evenodd" d="M12.9112 24.8413C12.7947 24.5168 12.6804 24.1919 12.5685 23.8667C12.3976 23.3684 12.2335 22.8678 12.0762 22.3647L16.5038 23.2548C16.7477 23.9359 17.0025 24.6117 17.2678 25.2822C17.5087 25.891 17.7534 26.4965 18.0165 27.0959C16.1941 26.7087 14.4598 25.9427 12.9112 24.8413Z" fill="#00E2D0"/>
<path fill-rule="evenodd" clip-rule="evenodd" d="M11.4455 5.93362L13.6302 5.82941V5.90448C13.6719 6.85199 13.7272 7.79844 13.7942 8.74385C13.8803 9.99468 13.9871 11.2455 14.1146 12.4963C14.2224 13.5315 14.3458 14.5633 14.503 15.591C14.6166 16.3593 14.7448 17.1265 14.9099 17.8842C15.075 18.6421 15.2779 19.4165 15.4983 20.1774C15.5332 20.2973 15.5681 20.4161 15.6042 20.536L11.3212 19.6751C11.2532 19.3967 11.1882 19.1185 11.127 18.8412C10.9406 17.9854 10.7949 17.1213 10.6658 16.254C10.5046 15.1617 10.3745 14.0651 10.2589 12.9644C10.1172 11.6031 10.0046 10.2365 9.91135 8.86996C9.88708 8.5166 9.86474 8.16427 9.84338 7.81093C10.3207 7.13585 10.8576 6.51169 11.4464 5.94716L11.4455 5.93362Z" fill="white"/>
<path fill-rule="evenodd" clip-rule="evenodd" d="M41.1383 5.0108C41.2509 5.16924 41.3548 5.33598 41.4538 5.50379C41.6374 5.8165 41.8053 6.13444 41.9646 6.45861C42.1772 6.89119 42.3744 7.33104 42.5618 7.77612C42.6958 8.09301 42.8252 8.4116 42.9502 8.73195L39.6887 11.1889C39.6518 11.0846 39.614 10.9804 39.5761 10.8844C39.3168 10.1934 39.042 9.50855 38.7352 8.83935C38.6452 8.64061 38.551 8.44398 38.4526 8.2494C39.174 7.01709 40.0816 5.92255 41.1383 5.0108Z" fill="#00E2D0"/>
<path fill-rule="evenodd" clip-rule="evenodd" d="M43.8222 11.1317C43.895 11.3401 43.9659 11.558 44.0319 11.7738C44.1727 12.2313 44.295 12.6942 44.4018 13.1622C44.6063 14.0685 44.7612 14.9871 44.8659 15.9129C44.9881 16.9922 45.0584 18.0772 45.0766 19.164C45.0922 19.9939 45.0812 20.8238 45.0437 21.6543C45.0307 21.9322 45.0152 22.2101 44.9971 22.488C44.9767 22.7832 44.9524 23.0781 44.9222 23.372V23.3949L41.0646 22.9155C41.0733 22.8373 41.0802 22.7581 41.088 22.679C41.0967 22.5746 41.1044 22.4766 41.1122 22.3755C41.1633 21.6745 41.1928 20.9712 41.2005 20.2659C41.2083 19.5911 41.1957 18.9164 41.1627 18.2416C41.1249 17.488 41.0598 16.7364 40.9598 15.989C40.882 15.4085 40.7831 14.831 40.6568 14.2608C40.6092 14.0524 40.5597 13.8438 40.5034 13.6355L43.825 11.1337L43.8222 11.1317Z" fill="white"/>
<path fill-rule="evenodd" clip-rule="evenodd" d="M48.9178 1.72717C48.9712 1.85331 49.0245 1.9815 49.0771 2.10763C49.2518 2.53013 49.4204 2.9551 49.5829 3.38246C49.9994 4.47171 50.3878 5.57139 50.7578 6.68149C51.0944 7.69396 51.4161 8.71135 51.7229 9.73355C51.8103 10.0223 51.8957 10.3131 51.9812 10.6039C52.0579 10.8666 52.1346 11.125 52.2055 11.3939C52.3601 11.9673 52.4961 12.5455 52.6133 13.1285C52.6259 13.1879 52.6376 13.2473 52.6492 13.3066L48.6595 13.2911C48.5753 12.9283 48.4821 12.5681 48.3798 12.2102C48.3187 11.9965 48.2555 11.7828 48.1924 11.5692C47.6885 9.86904 47.1516 8.17938 46.5593 6.51264C46.3314 5.86848 46.0936 5.22848 45.8457 4.59264C45.6603 4.11941 45.4699 3.64716 45.2631 3.18333L45.2242 3.09578L45.0136 2.65591C46.2696 2.15857 47.5826 1.84615 48.9169 1.72717H48.9178Z" fill="#00E2D0"/>
<path fill-rule="evenodd" clip-rule="evenodd" d="M53.0532 15.8106C53.0901 16.0963 53.1231 16.383 53.1503 16.6695C53.2862 17.9381 53.3688 19.2139 53.4096 20.4908C53.4439 21.5645 53.448 22.6384 53.4222 23.7128C53.4125 24.1298 53.3979 24.5466 53.3784 24.9636C53.3619 25.3316 53.3406 25.6994 53.3124 26.0663V26.0945L49.4431 25.7339C49.4496 25.6526 49.4554 25.5713 49.4606 25.49C49.4684 25.3681 49.4762 25.2472 49.4829 25.1262C49.5412 24.0456 49.5652 22.9633 49.5548 21.8793C49.5451 20.7326 49.5005 19.5861 49.413 18.4394C49.3451 17.5535 49.2509 16.6675 49.1218 15.7919L53.0483 15.8076L53.0532 15.8106Z" fill="white"/>
<path fill-rule="evenodd" clip-rule="evenodd" d="M58.3139 4.23966C58.4318 4.56418 58.546 4.88942 58.6567 5.21533C58.8276 5.71359 58.992 6.21424 59.15 6.71736L54.7213 5.82718C54.478 5.14687 54.2233 4.47106 53.9573 3.79979C53.7165 3.19105 53.4717 2.58545 53.2086 1.98608C55.0311 2.37231 56.7656 3.13789 58.3139 4.23966Z" fill="#00E2D0"/>
<path fill-rule="evenodd" clip-rule="evenodd" d="M59.7811 23.1446L57.5965 23.2488C57.5965 23.2228 57.5965 23.1978 57.5965 23.1728C57.5556 22.2263 57.4994 21.2789 57.4333 20.3334C57.3459 19.0825 57.2391 17.8319 57.1119 16.581C57.0052 15.5469 56.8808 14.514 56.7294 13.4863C56.6148 12.7179 56.4876 11.9507 56.3225 11.1931C56.1575 10.4352 55.9535 9.65967 55.7342 8.89979C55.6992 8.77993 55.6633 8.66008 55.6273 8.54022L59.9103 9.40119C59.9781 9.6795 60.0433 9.95779 60.1044 10.2351C60.2909 11.0898 60.4366 11.955 60.5647 12.8211C60.7268 13.9135 60.856 15.0101 60.9726 16.1109C61.1136 17.4729 61.2292 18.8377 61.3191 20.2052C61.3437 20.5582 61.3664 20.9112 61.3871 21.2642C60.9102 21.9397 60.3737 22.5642 59.785 23.129L59.7811 23.1446Z" fill="white"/>
</g>
<defs>
<filter id="filter0_d_500_558" x="0" y="0" width="168" height="36" filterUnits="userSpaceOnUse" color-interpolation-filters="sRGB">
<feFlood flood-opacity="0" result="BackgroundImageFix"/>
<feColorMatrix in="SourceAlpha" type="matrix" values="0 0 0 0 0 0 0 0 0 0 0 0 0 0 0 0 0 0 127 0" result="hardAlpha"/>
<feOffset dy="4"/>
<feGaussianBlur stdDeviation="2"/>
<feComposite in2="hardAlpha" operator="out"/>
<feColorMatrix type="matrix" values="0 0 0 0 0 0 0 0 0 0 0 0 0 0 0 0 0 0 0.25 0"/>
<feBlend mode="normal" in2="BackgroundImageFix" result="effect1_dropShadow_500_558"/>
<feBlend mode="normal" in="SourceGraphic" in2="effect1_dropShadow_500_558" result="shape"/>
</filter>
<clipPath id="clip0_500_558">
<rect width="160" height="28" fill="white" transform="translate(4)"/>
</clipPath>
</defs>
</svg>
