<svg width="208" height="70" viewBox="0 0 208 70" fill="none" xmlns="http://www.w3.org/2000/svg">
<rect width="208" height="70" rx="35" fill="url(#paint0_radial_500_655)"/>
<path d="M51.7562 29.54C51.7562 27.86 52.1862 26.56 53.0462 25.64C53.9062 24.72 55.1462 24.26 56.7662 24.26C58.3862 24.26 59.6262 24.72 60.4862 25.64C61.3462 26.56 61.7762 27.86 61.7762 29.54V40.46C61.7762 42.14 61.3462 43.44 60.4862 44.36C59.6262 45.28 58.3862 45.74 56.7662 45.74C55.1462 45.74 53.9062 45.28 53.0462 44.36C52.1862 43.44 51.7562 42.14 51.7562 40.46V29.54ZM55.0562 40.67C55.0562 42.05 55.6262 42.74 56.7662 42.74C57.9062 42.74 58.4762 42.05 58.4762 40.67V29.33C58.4762 27.95 57.9062 27.26 56.7662 27.26C55.6262 27.26 55.0562 27.95 55.0562 29.33V40.67ZM73.1607 24.5V27.5H69.7107V45.5H66.4107V27.5H62.9607V24.5H73.1607ZM74.6141 45.5V24.5H85.0241V45.5H81.6641V27.5H77.9141V45.5H74.6141ZM92.2768 24.5C93.9168 24.5 95.1468 24.94 95.9668 25.82C96.7868 26.7 97.1968 27.99 97.1968 29.69V32.42C97.1968 34.12 96.7868 35.41 95.9668 36.29C95.1468 37.17 93.9168 37.61 92.2768 37.61H90.7168V45.5H87.4168V24.5H92.2768ZM90.7168 34.61H92.2768C92.8168 34.61 93.2168 34.46 93.4768 34.16C93.7568 33.86 93.8968 33.35 93.8968 32.63V29.48C93.8968 28.76 93.7568 28.25 93.4768 27.95C93.2168 27.65 92.8168 27.5 92.2768 27.5H90.7168V34.61ZM106.075 45.5L105.505 41.69H101.455L100.885 45.5H97.8554L101.215 24.5H106.045L109.405 45.5H106.075ZM105.055 38.84L103.465 28.22L101.875 38.84H105.055ZM115.922 24.5C117.622 24.5 118.862 24.9 119.642 25.7C120.422 26.48 120.812 27.69 120.812 29.33V30.08C120.812 31.16 120.632 32.05 120.272 32.75C119.932 33.45 119.402 33.97 118.682 34.31C120.322 34.95 121.142 36.45 121.142 38.81V40.52C121.142 42.14 120.712 43.38 119.852 44.24C119.012 45.08 117.772 45.5 116.132 45.5H110.942V24.5H115.922ZM114.242 33.05H115.532C116.192 33.05 116.682 32.88 117.002 32.54C117.342 32.2 117.512 31.63 117.512 30.83V29.66C117.512 28.9 117.372 28.35 117.092 28.01C116.832 27.67 116.412 27.5 115.832 27.5H114.242V33.05ZM114.242 42.5H116.132C116.712 42.5 117.142 42.35 117.422 42.05C117.702 41.73 117.842 41.19 117.842 40.43V38.6C117.842 37.64 117.672 36.98 117.332 36.62C117.012 36.24 116.472 36.05 115.712 36.05H114.242V42.5ZM123.13 45.5V24.5H126.07V37.79L127.27 33.17L129.97 24.5H133.6V45.5H130.63V30.71L129.28 35.87L126.52 45.5H123.13ZM145.172 24.5V27.5H141.722V45.5H138.422V27.5H134.972V24.5H145.172ZM146.626 24.5H149.926V32.39H151.486C153.126 32.39 154.356 32.83 155.176 33.71C155.996 34.59 156.406 35.88 156.406 37.58V40.31C156.406 42.01 155.996 43.3 155.176 44.18C154.356 45.06 153.126 45.5 151.486 45.5H146.626V24.5ZM151.486 42.5C152.026 42.5 152.426 42.35 152.686 42.05C152.966 41.75 153.106 41.24 153.106 40.52V37.37C153.106 36.65 152.966 36.14 152.686 35.84C152.426 35.54 152.026 35.39 151.486 35.39H149.926V42.5H151.486Z" fill="white"/>
<defs>
<radialGradient id="paint0_radial_500_655" cx="0" cy="0" r="1" gradientUnits="userSpaceOnUse" gradientTransform="translate(17.6322 11) rotate(12.2722) scale(190.538 1538.79)">
<stop stop-color="#0CADA1"/>
<stop offset="1" stop-color="#00E2D0"/>
</radialGradient>
</defs>
</svg>
